<svg xmlns="http://www.w3.org/2000/svg" version="1.1" xmlns:xlink="http://www.w3.org/1999/xlink" xmlns:svgjs="http://svgjs.dev/svgjs" viewBox="0 0 1920 1080"><rect width="1920" height="1080" fill="#204a87"></rect><g transform="matrix(-1.15,1.408343819019456e-16,-1.408343819019456e-16,-1.15,2002.7605703353881,1161)"><path d="M0,-1080C-7.773423089367067,-988.8348186388126,-37.40237257695185,-701.7505408516853,-46.6405385362024,-533.0089118328759C-55.87870449545295,-364.26728281406656,-55.90654020063614,-227.163946413342,-55.42899575550331,-67.550225887144C-54.95145131037048,92.063494639054,-63.78488836261272,283.5177014078365,-43.775271865405415,424.67341132431204C-23.765655368198114,565.8291212407876,62.31766162278635,643.612910449381,64.62870322774049,779.3840336117089C66.93974483269463,915.1551567740368,-39.58526478937714,1086.5233517713982,-29.909022235680595,1239.3001502982793C-20.23277968198405,1392.0769488251603,117.70132151063969,1542.594849822708,122.68615854991978,1696.0448247729948C127.67099558919988,1849.4947997232816,20.447693091653296,2082.6741374621656,0,2160L 1920 2160 L 1920 -1080 Z" fill="url(&quot;#SvgjsLinearGradient1102&quot;)"></path><path d="M320,-1080C303.9615462529443,-955.0778977833407,204.68237874949926,-540.035390122106,223.76927751766584,-330.46738670004424C242.85617628583242,-120.89938327798245,423.16103448995443,-39.81799321022072,434.5213926089994,177.40802053237087C445.8817507280444,394.63403427496246,310.4547852266313,755.0160305570578,291.9314262319357,972.8886957555053C273.40806723724006,1190.7613609539528,318.70314301281496,1286.7921276823067,323.3812386408257,1484.6440117230559C328.05933426883644,1682.495895763805,320.56353977347095,2047.4406686205093,320,2160L 1920 2160 L 1920 -1080 Z" fill="url(&quot;#SvgjsLinearGradient1103&quot;)"></path><path d="M640,-1080C655.9011935971452,-985.6838748042318,718.1704516525234,-686.0964868580145,735.4071615828707,-514.1032488253908C752.643871513218,-342.11001079276707,739.7099375920619,-179.1781448513297,743.4202595820834,-48.040571804257894C747.1305815721049,83.09700124281392,768.8630979187351,140.07431156800877,757.6690935229998,272.72218945704003C746.4750891272645,405.3700673460713,695.4156479322928,605.7145217634438,676.2562332076718,747.8466955299298C657.0968184830508,889.9788692964157,640.2812768870208,958.6907385620875,642.7126051752737,1125.5152320559557C645.1439334635265,1292.339725549824,691.2963037997346,1576.3795285024653,690.8442029371889,1748.7936564931392C690.3921020746433,1921.2077844838132,648.4740338228648,2091.4656094155234,640,2160L 1920 2160 L 1920 -1080 Z" fill="url(&quot;#SvgjsLinearGradient1104&quot;)"></path><path d="M960,-1080C967.8219169168545,-1011.0007519275509,1021.1781974306833,-811.6747062340163,1006.9315015011271,-666.0045115653055C992.6848055715708,-520.3343168965947,898.45172914174,-389.07555122850874,874.5198244226626,-205.97883198773508C850.5879197035853,-22.88211274696144,854.3233633347679,257.7370402659503,863.3400731866632,432.5758038793364C872.3567830385584,607.4145674927224,920.6897443916786,718.0440884308806,928.6200835340338,843.0537496925812C936.5504226763891,968.0634109542817,902.7823018642702,1044.0384369531455,910.9221080407945,1182.6337714495398C919.0619142173188,1321.2291059459342,969.2792719333121,1511.731385245871,977.4589205931796,1674.6257566709478C985.6385692530472,1837.5201280960246,962.9098200988633,2079.104292778491,960,2160L 1920 2160 L 1920 -1080 Z" fill="url(&quot;#SvgjsLinearGradient1105&quot;)"></path><path d="M1280,-1080C1295.7000673200973,-1019.9541020223817,1376.7072649933239,-870.0069236136187,1374.2004039205835,-719.7246121342902C1371.6935428478432,-569.4423006549616,1263.5403038214813,-350.2225137322914,1264.958833563558,-178.30613112402852C1266.3773633056348,-6.38974851576566,1382.692511835017,156.87555041026806,1382.7115823730435,311.77368351528696C1382.73065291107,466.6718166203059,1286.0559764132654,602.1962474392957,1265.0732567917164,751.0826675060848C1244.0905371701674,899.969087572874,1248.5367226380038,1049.16003118587,1256.8152646437493,1205.0922039160216C1265.0938066494948,1361.0243766461733,1310.8803862668142,1527.5244045396655,1314.7445088261893,1686.6757038869953C1318.6086313855644,1845.827003234325,1285.7907514710316,2081.1126173144994,1280,2160L 1920 2160 L 1920 -1080 Z" fill="url(&quot;#SvgjsLinearGradient1106&quot;)"></path><path d="M1600,-1080C1618.0305993983836,-999.4681414775737,1726.9365286341108,-731.1469822318707,1708.1835963903018,-596.8088488654421C1689.4306641464927,-462.4707154990135,1487.4472869311674,-376.66763366369656,1487.4824065371454,-273.9711998014284C1487.5175261431234,-171.2747659391602,1699.614872611016,-101.30590384986643,1708.3943140261695,19.369754308166847C1717.173755441323,140.0454124662001,1547.840480490022,311.4897293051357,1540.1590550280673,450.0827491467712C1532.4776295661127,588.6757689884067,1633.0989511761495,711.4134609918509,1662.3057612544414,850.9278733579798C1691.5125713327334,990.4422857241087,1736.4275376672513,1120.1243040988716,1715.3999154978187,1287.169223343545C1694.3722933283861,1454.2141425882182,1555.3733474874832,1707.7255927166111,1536.1400282378468,1853.1973888260202C1516.9067089882103,1998.6691849354293,1589.3566713729745,2108.866231471003,1600,2160L 1920 2160 L 1920 -1080 Z" fill="url(&quot;#SvgjsLinearGradient1107&quot;)"></path></g><defs><linearGradient x1="0.1" y1="0" x2="0" y2="1" id="SvgjsLinearGradient1102"><stop stop-color="#204a87" offset="0"></stop><stop stop-color="#205b87" offset="0"></stop></linearGradient><linearGradient x1="0.1" y1="0" x2="0" y2="1" id="SvgjsLinearGradient1103"><stop stop-color="#1c4075" offset="0"></stop><stop stop-color="#1c4f75" offset="0.16666666666666666"></stop></linearGradient><linearGradient x1="0.1" y1="0" x2="0" y2="1" id="SvgjsLinearGradient1104"><stop stop-color="#173662" offset="0"></stop><stop stop-color="#174262" offset="0.3333333333333333"></stop></linearGradient><linearGradient x1="0.1" y1="0" x2="0" y2="1" id="SvgjsLinearGradient1105"><stop stop-color="#132c50" offset="0"></stop><stop stop-color="#133650" offset="0.5"></stop></linearGradient><linearGradient x1="0.1" y1="0" x2="0" y2="1" id="SvgjsLinearGradient1106"><stop stop-color="#0f223d" offset="0"></stop><stop stop-color="#0f2a3d" offset="0.6666666666666666"></stop></linearGradient><linearGradient x1="0.1" y1="0" x2="0" y2="1" id="SvgjsLinearGradient1107"><stop stop-color="#0a172b" offset="0"></stop><stop stop-color="#0a1c2b" offset="0.8333333333333334"></stop></linearGradient></defs></svg>