<svg xmlns="http://www.w3.org/2000/svg" version="1.1" xmlns:xlink="http://www.w3.org/1999/xlink" xmlns:svgjs="http://svgjs.dev/svgjs" viewBox="0 0 1920 1080"><rect width="1920" height="1080" fill="#1890ff"></rect><g transform="matrix(1.15,0,0,1.15,-139.9465049743651,-81)"><path d="M0,-1080C1.8426562632574435,-998.5412830532644,4.680040304467778,-737.7116572587006,11.055937579544661,-591.2476983195864C17.431834854621545,-444.7837393804723,49.05044480224732,-347.144550469108,38.2553836504613,-201.21624636531484C27.460322498675275,-55.287942261521664,-48.238201168804615,121.49254339287648,-53.71442933117148,284.3221263031726C-59.190657493538346,447.1517092134687,4.858685689879013,620.4391887463023,5.398014676260118,775.7612510964617C5.937343662641223,931.0833134466211,-49.62674167197968,1068.8991777202841,-50.47845541288485,1216.254500404129C-51.33016915379002,1363.6098230879738,-8.125343671318381,1502.6022706002186,0.2877322308290928,1659.8931871995305C8.700808132976567,1817.1841037988424,0.0479553718048488,2076.648864533255,0,2160L 1920 2160 L 1920 -1080 Z" fill="url(&quot;#SvgjsLinearGradient1092&quot;)"></path><path d="M274.2857142857143,-1080C277.47026288955993,-995.8057790798446,284.12534209907614,-749.615585192515,293.3930059087882,-574.8346744790672C302.6606697185003,-400.05376376561935,342.1682518867815,-223.27396789003558,329.89169714398673,-31.31453571931287C317.615142401192,160.64489645140986,222.77801693769902,397.58348053100053,219.73367745201963,576.9219185452692C216.68933796634025,756.260356559538,306.4413797353703,863.1508751776104,311.62566022991035,1044.7160923662993C316.8099407244504,1226.2813095549884,257.0626847432927,1480.4325704051198,250.83936041926006,1666.3132216774034C244.61603609522737,1852.193872949687,270.37798864130525,2077.7188702795675,274.2857142857143,2160L 1920 2160 L 1920 -1080 Z" fill="url(&quot;#SvgjsLinearGradient1093&quot;)"></path><path d="M548.5714285714286,-1080C540.9465754184267,-1012.9582119384977,494.1073018824475,-807.1012835561764,502.82230965341773,-677.7492716309864C511.537317424388,-548.3972597057964,586.1133703790669,-438.0143484135432,600.86147519725,-303.88792844885967C615.6095800154332,-169.76150848417612,600.937067736641,-16.394758375568102,591.3109385625164,127.00924815711488C581.6848093883918,270.4132546897979,552.9018362185682,422.6857052306599,543.1047001525029,556.5361107472382C533.3075640864377,690.3865162638166,537.9590939997804,788.9532007127349,532.5281221661247,930.111681256585C527.097150332469,1071.2701618004353,512.7665522588804,1265.2567737146833,510.5188691505691,1403.4869940103392C508.27118604225774,1541.7172143059952,512.6999302794467,1633.4075020322434,519.0420235162566,1759.4930030305202C525.3841167530665,1885.578504028797,543.6498610622332,2093.24883383842,548.5714285714286,2160L 1920 2160 L 1920 -1080 Z" fill="url(&quot;#SvgjsLinearGradient1094&quot;)"></path><path d="M822.8571428571428,-1080C816.1659905770539,-980.1810161698303,776.9745281428633,-690.2280607490513,782.7102291766095,-481.0860970189818C788.4459302103556,-271.9441332889122,852.8847642771257,-43.901948202171326,857.2713490596199,174.85178238041723C861.6579338421141,393.6055129630058,807.5524910662708,607.9047904256287,809.0297378715746,831.4362864765495C810.5069846768785,1054.9677825274703,863.8302623938482,1294.6134730987005,866.1348298914429,1516.0407586859424C868.4393973890376,1737.4680442731842,830.0700906961928,2052.6734597809905,822.8571428571428,2160L 1920 2160 L 1920 -1080 Z" fill="url(&quot;#SvgjsLinearGradient1095&quot;)"></path><path d="M1097.142857142857,-1080C1100.1809565965443,-1012.0099365138672,1111.7610031513764,-824.7037843379073,1115.37145386498,-672.0596190832032C1118.9819045785835,-519.415453828499,1126.5341946835756,-329.27638339862415,1118.8055614244788,-164.13500847177485C1111.076928165382,1.006366455074442,1080.7774916719632,156.88774435781627,1068.999654310399,318.7886304778927C1057.2218169488347,480.68951659796915,1049.1422138819114,659.2671072594129,1048.1385372550935,807.2703082486837C1047.1348606282756,955.2735092379545,1051.9468849710288,1049.9429617218793,1062.9775945494914,1206.8078364135172C1074.008304127954,1363.672711105155,1108.6285842936416,1589.5941958007643,1114.3227947258692,1748.4595563985115C1120.017005158097,1907.3249169962587,1100.0061800733592,2091.4099260664184,1097.142857142857,2160L 1920 2160 L 1920 -1080 Z" fill="url(&quot;#SvgjsLinearGradient1096&quot;)"></path><path d="M1371.4285714285716,-1080C1366.6840630563152,-1002.6481684305254,1343.0211491598732,-761.453604027096,1342.9615211950336,-615.8890105831524C1342.901893230194,-470.3244171392088,1359.713134128606,-366.6231584179459,1371.0708036395345,-206.61243933633799C1382.4284731504629,-46.60172025473008,1406.5709280143237,186.9640084884606,1411.1075382606043,344.1753039064949C1415.644148506885,501.3865993245292,1410.1043987009139,579.6270624404135,1398.2904651172187,736.6553331718678C1386.4765315335235,893.6836039033221,1348.0461371600782,1122.3163636117902,1340.223936758433,1286.3449282952206C1332.4017363567878,1450.373492978651,1346.1564902623236,1575.217542654987,1351.3572627073468,1720.8267212724502C1356.55803515237,1866.4358998899133,1368.0833533083674,2086.8044535454083,1371.4285714285716,2160L 1920 2160 L 1920 -1080 Z" fill="url(&quot;#SvgjsLinearGradient1097&quot;)"></path><path d="M1645.7142857142856,-1080C1652.6010696188719,-997.3197126631615,1686.7028703141004,-739.5582275206945,1687.034989141803,-583.9182759789687C1687.3671079695055,-428.278324437243,1649.435326226931,-295.51826920167406,1647.7069986805013,-146.1602907496453C1645.9786711340716,3.197687702383462,1685.9550793123506,166.4460751070586,1676.665023863225,312.2295947332039C1667.3749684140996,458.0131143593492,1596.645981115122,566.5200016126797,1591.9666659857485,728.5408270072264C1587.287350856375,890.5616524017731,1641.2134083975416,1118.3802364155931,1648.5891330869845,1284.354547100484C1655.9648577764274,1450.328857785375,1636.7001553511884,1578.4457822999866,1636.2210141224052,1724.3866911165726C1635.741872893622,1870.3275999331586,1644.1320737823055,2087.397781852762,1645.7142857142856,2160L 1920 2160 L 1920 -1080 Z" fill="url(&quot;#SvgjsLinearGradient1098&quot;)"></path></g><defs><linearGradient x1="0.1" y1="0" x2="0" y2="1" id="SvgjsLinearGradient1092"><stop stop-color="#1890ff" offset="0"></stop><stop stop-color="#18b6ff" offset="0"></stop></linearGradient><linearGradient x1="0.1" y1="0" x2="0" y2="1" id="SvgjsLinearGradient1093"><stop stop-color="#3ea2ff" offset="0"></stop><stop stop-color="#3ec2ff" offset="0.14285714285714285"></stop></linearGradient><linearGradient x1="0.1" y1="0" x2="0" y2="1" id="SvgjsLinearGradient1094"><stop stop-color="#65b5ff" offset="0"></stop><stop stop-color="#65cfff" offset="0.2857142857142857"></stop></linearGradient><linearGradient x1="0.1" y1="0" x2="0" y2="1" id="SvgjsLinearGradient1095"><stop stop-color="#8bc7ff" offset="0"></stop><stop stop-color="#8bdaff" offset="0.42857142857142855"></stop></linearGradient><linearGradient x1="0.1" y1="0" x2="0" y2="1" id="SvgjsLinearGradient1096"><stop stop-color="#b1daff" offset="0"></stop><stop stop-color="#b1e7ff" offset="0.5714285714285714"></stop></linearGradient><linearGradient x1="0.1" y1="0" x2="0" y2="1" id="SvgjsLinearGradient1097"><stop stop-color="#d8ecff" offset="0"></stop><stop stop-color="#d8f2ff" offset="0.7142857142857143"></stop></linearGradient><linearGradient x1="0.1" y1="0" x2="0" y2="1" id="SvgjsLinearGradient1098"><stop stop-color="#feffff" offset="0"></stop><stop stop-color="#feffff" offset="0.8571428571428571"></stop></linearGradient></defs></svg>